<?xml version="1.0" encoding="utf-8"?>
<!-- Generator: Adobe Illustrator 22.1.0, SVG Export Plug-In . SVG Version: 6.00 Build 0)  -->
<svg version="1.1" id="Layer_1" xmlns="http://www.w3.org/2000/svg" xmlns:xlink="http://www.w3.org/1999/xlink" x="0px" y="0px"
	 width="1000px" height="1000px" viewBox="0 0 1000 1000" style="enable-background:new 0 0 1000 1000;" xml:space="preserve">
<style type="text/css">
	.st0{fill:#D6127D;}
</style>
<g>
	<path class="st0" d="M673.2,418.9c-58.9,1.3-110.9-135.3-245.3-47.3c-13.4,8.8-25.2-2.2-30-14.4c-12.2-31.2,11.7-51.1,31.9-70.6
		c32.9-31.7,77.3-67,83.7-115.4c5.5-41.9-19.3-94.1-62.7-105.3c-8.5-2.2-16.3-2-24.8-0.5c-13.1,2.3-27,10.2-35.3,20.7
		c-2.3,2.9-4.3,5.6-5.8,9c-1.7,4.1-2.6,7.5-3.2,11.7c2.9-0.7,5.7-0.7,8.4-1c18.8-2.2,34.2,17,21.4,30.8c-1.5,1.6-3.2,3-5.4,4.2
		c14.4,0.8,30.9-8.7,44.6-11.4c27.5-5.5,34.4,16.3,25,38.7c0,0,0-0.1,0-0.1c-11.5,26.3-30.7,44.8-52.3,63.7
		C382,268,319,318.2,327.6,381.2c2.3,16.6,9.8,36.6,19.6,50.3c19.1,26.6,46.8,63.1,79.4,68.8c15.1,2.6,29.3,4,42.7,4.4
		c7.5,16.2,24.9,55.1,35.1,89c3.3,35.1,6.3,83.5,6.4,144.5l-30.3,29.4c-56.5,41-41.4,99.1-41.4,99.1c4.1-20.5,14.4-43.6,14.4-43.6
		c-4.1,28.2,3.1,39.5,3.1,39.5c1.5-39.6,12.5-60.3,18.1-68.4l36.1-35c-0.4,40.3-2.1,85.7-5.7,135.9c-7.6,24.3-37,23.9-54.5,30.3
		c-1.8,0.7-9.7,6.2-11.2,5.8c22.7,10.3,83.4,0.3,83.4,0.3l-3.5-14.1c0,0,7.1,9.8,7.1,3.2c0-7.4-6.4-22.1-7.7-25
		c4-55.9,5.6-105.8,5.7-149.6l84.9-82.2c2.4-2.3,3-5.9,1.4-8.9l-42.6-81.2c-1.8-11-8.6-55.7-8.5-84.8c27.8-11.6,48-27.8,61.3-42.1
		c22.2,14.9,51.6-2.4,51.6-2.4c-9.4-0.9-19.1-5.4-27.4-10.6C664.4,433.9,673.2,418.9,673.2,418.9z M428.5,112.2c-8.8,0-16-7.1-16-16
		c0-8.8,7.1-16,16-16c8.8,0,16,7.1,16,16C444.5,105.1,437.3,112.2,428.5,112.2z M594.9,656.8L524.4,725
		c-0.5-55.9-3.3-100.7-6.5-133.9c0,0-0.9-41.9-1.2-70.8c15.7,23.1,38.9,57.9,41.2,64.1l0.5-0.4L594.9,656.8z M487.8,501.1
		c-40.1,0-72.5-32.5-72.5-72.5c0-40.1,32.5-72.5,72.5-72.5c40.1,0,72.5,32.5,72.5,72.5C560.3,468.7,527.8,501.1,487.8,501.1z"/>
	<path class="st0" d="M372.2,202.7c-2.3-5.1-4-10.5-5-16c-2-11.3-1.8-24.1,4.1-34.4c5.8-9.9,16.5-16,26.5-20.9
		c4.9-2.4,9.9-4.6,14.9-6.8c0.2-0.1,0.4-0.2,0.6-0.3c-1.3-8.5-9.9-16.7-23.2-16.7c-2.7,0-5.6,0.3-8.7,1.1c0,0-42.4,21.7-23.9,71.5
		C360.4,187.6,364,198.2,372.2,202.7z"/>
	<path class="st0" d="M397.8,141.7c11.4-2,16.2-8.9,15.7-16c-4,2-10.3,4.5-14.3,6.5c-9.4,4.8-18,10.1-24.1,19.2
		c-6.6,10-7.4,22.9-5.2,34.4c1,4.9,2.4,9.8,4.3,14.4C373.4,187.7,372.2,146.3,397.8,141.7z"/>
	<path class="st0" d="M431.5,95.7c-2.6,0-4.7-2-4.7-4.4c0-1.7,1-3.2,2.5-3.9c-0.7-0.1-1.4-0.2-2.1-0.2c-5.6,0-10.2,4.6-10.2,10.3
		c0,5.7,4.6,10.3,10.2,10.3c5.6,0,10.2-4.6,10.2-10.3c0-1.9-0.5-3.6-1.3-5.1C435.5,94.2,433.7,95.7,431.5,95.7z"/>
</g>
</svg>
